<?xml version="1.0" standalone="no"?>
<!DOCTYPE svg PUBLIC "-//W3C//DTD SVG 20010904//EN"
 "http://www.w3.org/TR/2001/REC-SVG-20010904/DTD/svg10.dtd">
<svg version="1.0" xmlns="http://www.w3.org/2000/svg"
 width="700.000000pt" height="700.000000pt" viewBox="0 0 700.000000 700.000000"
 preserveAspectRatio="xMidYMid meet">
<metadata>
Created by potrace 1.11, written by Peter Selinger 2001-2013
</metadata>
<g transform="translate(0.000000,700.000000) scale(0.100000,-0.100000)"
fill="#000000" stroke="none">
<path d="M4215 6189 c-93 -59 -266 -168 -383 -241 -116 -73 -245 -153 -285
-178 l-72 -46 -65 38 c-36 22 -72 43 -80 48 -22 14 -370 220 -405 240 -16 10
-106 63 -199 119 -93 56 -171 99 -173 97 -5 -4 7 -40 147 -446 45 -129 108
-311 140 -405 58 -171 80 -235 230 -665 45 -129 83 -242 85 -250 2 -8 15 -46
29 -85 13 -38 49 -142 80 -230 30 -88 94 -272 142 -410 47 -137 86 -261 86
-275 0 -32 3 -19 -97 -330 -47 -146 -88 -272 -90 -280 -2 -8 -10 -35 -18 -60
-8 -25 -31 -94 -50 -155 -48 -150 -180 -563 -227 -710 -21 -66 -69 -214 -105
-330 -37 -115 -77 -241 -90 -280 -13 -38 -51 -158 -85 -265 -34 -107 -75 -235
-91 -284 -16 -50 -27 -92 -24 -94 3 -3 22 6 42 20 21 14 174 110 340 214 166
104 320 200 342 214 159 100 182 111 204 103 20 -7 769 -451 860 -510 46 -29
56 -24 38 20 -7 18 -19 50 -26 72 -7 22 -55 159 -105 305 -51 146 -100 290
-110 320 -10 30 -53 154 -95 275 -42 121 -85 247 -96 280 -11 33 -23 67 -26
75 -3 8 -7 20 -9 25 -2 6 -19 55 -38 110 -49 141 -206 598 -278 805 -120 351
-156 459 -153 462 2 2 6 15 8 28 2 14 7 32 10 40 3 8 17 51 30 95 39 126 157
496 172 540 7 22 29 90 48 150 19 61 67 211 107 335 40 124 83 261 97 305 14
44 35 112 48 150 13 39 53 165 90 280 142 448 198 624 230 720 32 101 48 156
43 154 -2 -1 -79 -50 -173 -110z"/>
<path d="M6135 4409 c-77 -27 -185 -64 -240 -83 -55 -19 -192 -67 -305 -106
-113 -39 -250 -86 -305 -105 -55 -18 -206 -70 -335 -115 -129 -45 -275 -95
-325 -112 -49 -16 -99 -33 -110 -38 -11 -5 -47 -17 -80 -28 -33 -11 -139 -47
-235 -80 -736 -254 -689 -237 -679 -246 2 -2 105 -36 229 -75 124 -40 250 -80
280 -91 30 -10 123 -39 205 -65 83 -26 218 -68 300 -95 83 -27 245 -79 360
-115 116 -37 271 -86 345 -110 400 -129 1048 -335 1055 -335 4 0 2 6 -5 14 -6
8 -66 103 -133 210 -67 108 -192 307 -278 444 l-155 248 41 70 c23 38 142 238
265 444 123 206 230 385 238 398 8 12 13 22 11 21 -2 0 -67 -23 -144 -50z"/>
<path d="M818 4205 c65 -102 126 -200 137 -218 11 -19 86 -139 168 -268 81
-130 147 -240 147 -246 0 -5 -39 -75 -86 -154 -48 -79 -95 -157 -104 -174 -9
-16 -92 -156 -184 -309 -91 -153 -164 -281 -162 -284 4 -4 244 74 301 98 11 5
115 41 230 80 231 79 630 216 1060 365 154 53 291 101 305 105 14 5 124 42
245 84 121 42 305 106 409 141 187 64 203 71 195 79 -4 4 -209 70 -674 217
-121 39 -231 74 -245 79 -14 5 -126 41 -250 80 -124 39 -328 105 -455 145
-584 187 -717 229 -815 261 -58 18 -107 34 -110 34 -3 0 -52 15 -109 35 -58
19 -108 35 -112 35 -4 0 45 -83 109 -185z"/>
</g>
</svg>
