<svg enable-background="new 0 0 472.7 159.8" viewBox="0 0 472.7 159.8" xmlns="http://www.w3.org/2000/svg"><path d="m4.4 74.8h464v9.9h-464z" fill="#0c3f97"/><path d="m279.1 1.5v64.4l3.6 2.1h13.4v-40.7l32.8 38.6 3.6 2.1h13.8v-64.9l-3.6-1.5-9.8 1.5v38.6l-34.8-38.6-3.6-1.6z" fill="#8a8b8a"/><path d="m279.1 1.5v64.4h13.4v-40.1l36.4 40.2h13.8v-64.4h-13.4v38.6l-34.8-38.7z" fill="#e6001a"/><path d="m41.9 2c-18.7 0-38.3 11.3-38.3 35.3 0 20.5 14.4 32.2 36.2 32.2 22.5 0 40.5-12.5 40.5-34.6 0-10.6-3.8-17.1-7.7-21.2-9.7-10.5-21.9-11.7-30.7-11.7m18.6 36.2c0 15.5-7.8 22.3-17.6 22.3-12.1 0-19.6-11-19.6-26.3 0-12.1 5.2-22.3 17.5-22.3 13.6 0 19.7 11.6 19.7 26.3" fill="#8a8b8a"/><path d="m38.3 0c-18.7 0-38.3 11.3-38.3 35.3 0 20.5 14.4 32.2 36.2 32.2 22.5 0 40.5-12.5 40.5-34.7 0-10.6-3.8-17.1-7.7-21.2-9.7-10.4-21.9-11.6-30.7-11.6m18.6 36.2c0 15.6-7.8 22.3-17.6 22.3-12.1 0-19.6-11-19.6-26.3 0-12.1 5.2-22.3 17.5-22.3 13.6 0 19.7 11.7 19.7 26.3" fill="#e6001a"/><path d="m274.2 5.9c-1.1-.7-2.2-1.4-3.4-1.9-5.9-2.1-11.2-2.2-17.7-2.2-10.4 0-16.2 2.1-21.3 5.6-1.8 1.3-7.2 5.3-7.2 14.3 0 4.4 1.5 11.8 15.7 17.3 16.4 6.4 17.9 8.4 17.9 13.1 0 4.8-3.9 7.3-10.3 7.3-5.2-.1-10.3-1.4-14.9-3.6-2.8-1.2-7.7-3.7-7.7-3.7l-3 6.1c-1.1 1.8-2.6 3.8-2.9 5.6-.1 1.1 3.3 2.7 4.1 2.9 6.6 2.1 15.1 2.7 20.6 2.7 9 0 13.8-1.5 16.1-2.2 13.5-4.5 15-15.1 15-19.1 0-12.6-11.1-17.1-19.8-20.5-10.6-4.2-14.7-5.6-14.7-9.5 0-6.5 7.4-7.5 10.5-7.4 5 .2 6.4.6 10.6 1.9 1.4.5 5.3 3.7 6.4 4.6 1.1.8 1.2 1 2.3 2z" fill="#8a8b8a"/><path d="m271.2 4.2c-7.8-3.4-13.5-4.2-21.4-4.2-10.4 0-16.2 2.1-21.3 5.6-1.8 1.3-7.2 5.3-7.2 14.3 0 4.4.6 12.3 14.8 17.9 16.4 6.4 18.8 7.8 18.8 12.6s-3.9 7.3-10.3 7.3c-5.2-.1-10.3-1.4-14.9-3.6-2.8-1.2-7.6-4.7-7.6-4.7l-1.5 8.2c-.4 2-.7 3.7-1 5.5-.1 1.1-.2 1.1.6 1.3 6.6 2.1 15.1 2.7 20.6 2.7 9.1 0 13.8-1.5 16.1-2.2 13.5-4.5 15-14.5 15-18.6 0-12.6-11.1-17.1-19.8-20.5-10.6-4.2-14.2-5.6-14.2-9.5 0-6.5 6.8-6.9 10-6.9 5.3 0 8.2.7 12.9 2.8 3.3 1.5 5.5 3.2 7.5 5z" fill="#e6001a"/><path d="m145.8 6c.1-1.1.2-1.3-.3-1.5-1.4-.7-2.8-1.3-4.3-1.8-3.8-.8-9.6-1.1-16-1.2-28.3 0-39.9 17-39.9 34.4 0 12.6 5.5 21.7 13 26.6 5 3.1 11.9 7 24.3 7 10.3 0 18.6-3.6 19.9-4.2.8-.4 1-.8 1.2-1.9l2.4-17.6s-2.6 1.9-3.5 2.5c0 0-2.8 6.1-3.2 6.3-6.9 4.2-12.4 4.2-14.1 4.2-18.1 0-21.8-12.5-21.8-22.9 0-18.6 8.1-24.8 18.5-24.8 8.3 0 14 2.9 16.3 4.2.1.1 2.6 2.1 2.6 2.1.4.3 2.8 2.3 2.8 2.3z" fill="#8a8b8a"/><path d="m142.5 4.5c.1-1.1.2-1.3-.3-1.5-.5-.3-9.7-2.9-20.2-2.9-28.4-.1-39.9 16.9-39.9 34.3 0 12.6 5.5 21.7 13 26.6 5 3.1 11.9 7 24.3 7 10.3 0 18.6-3.6 19.9-4.2.8-.4 1-.8 1.2-1.9l2.3-13.6s-2.5 2.2-3.6 2.8c0 0-2.5 1.7-2.9 2-6.9 4.2-12.4 4.2-14.1 4.2-18.1 0-21.8-12.5-21.8-22.9 0-18.6 8.1-24.8 18.5-24.8 5.7 0 11.3 1.4 16.3 4.2.1.1 2.3 1.3 2.3 1.3.2 0 3.6 2.4 3.6 2.4z" fill="#e6001a"/><path d="m153.3 3.1-3.7 62.9 3.6 2.1h18.6v-28.9h26.5l-3.5 26.8 3.6 2.1h18.5v-65l-3.6-1.6-14.9 1.6v25h-26.5v-25l-3.6-1.6z" fill="#8a8b8a"/><path d="m149.6 1.5v64.5h18.6v-28.4h26.5v28.4h18.5v-64.5h-18.5v25h-26.5v-25z" fill="#e6001a"/><path d="m351.8 1.5-.1 64.5 3.1 2.1h51.7v-10.8l-3.1-1.6h-30.9v-17.2h29.2v-9.5l-3.1-1.6h-26.1v-14.7h32.7v-9.6l-3.1-1.6z" fill="#8a8b8a"/><path d="m351.7 1.5v64.5h51.7v-10.3h-34v-18.8h29.2v-9.5h-29.2v-16.2h32.7v-9.7z" fill="#e6001a"/><path d="m412.7 3.2-3.1 62.6 3.1 2.2h16.9v-27.4h4.6c7.3 0 11.5 17.8 15 25.3 1 .6 2.2 1.7 3.1 2.2h20.3c-5.1-6-13.2-29.3-21.2-30.7 7.4-3.4 11.9-8.5 11.9-15.6 0-9.6-7.8-18.5-21-18.5zm16.9 9.7h8.1c6 0 10.8 3.9 10.8 9.3 0 6.9-6 10.7-10.4 10.7h-8.5z" fill="#8a8b8a"/><path d="m409.6 1.5v64.3h16.9v-27h4.6c8.7 0 14.9 23.1 18.1 27h19.3c-5.8-6.1-13.8-28.6-19.3-30.1 7.4-3.4 11-8.7 11-15.8 0-9.6-7.8-18.5-21-18.5zm16.9 9.7h8.1c6 0 10.8 3.9 10.8 9.3 0 6.9-6 10.7-10.4 10.7h-8.5z" fill="#e6001a"/><path d="m396.4 93.7-3.4-1.5h-61.2l-.2 11.7 3.4 1.5 18.5.1v50.6l3.4 2.4h17.5v-53h21.9zm-91 29.1h-8.5v-19.8h8.2c6.1 0 10.8 3.8 10.8 9.2 0 6.8-6 10.6-10.5 10.6m13 4.7c7.4-3.4 12.4-8.5 12.4-15.5 0-9.5-7.9-18.3-21.2-18.3h-29.8l-3.5 62.3 3.5 2.4h17v-27.6h4.6c7.4 0 11.2 17.9 14.7 25.2 1.5.7 2 1.9 3.5 2.4h21.4c-5.9-6.1-14.4-28.8-22.6-30.9m-153.2-6.3h-8.8v-18.8h8.4c6.3 0 9.5 4.9 9.5 9.8.1 5.4-4.5 9-9.1 9m5.4-27.5h-31.3l-3.1 62.3 3.1 2.4h17.5v-26.5h12.6c11.5-.2 21-8.7 21-20.1.1-7.8-6.3-17.7-19.8-18.1" fill="#8a8b8a"/><path d="m392.9 92.2h-61.3v11.7h21.9v52.1h17.5v-52.1h21.9z" fill="#e6001a"/><path d="m129.9 97.2c-1.1-.7-2.2-1.3-3.3-1.9-5.8-2-10.9-2.1-17.3-2.1-10.1 0-15.8 2.1-20.9 5.5-1.8 1.3-7.1 5.2-7.1 14 0 4.3 1.5 11.5 15.4 17 16 6.3 17.5 8.2 17.5 12.9s-3.8 7.2-10 7.2c-5.1-.1-10-1.3-14.6-3.6-2.8-1.1-7.6-3.6-7.6-3.6l-3.3 5.8c-.4 2-2.1 3.8-2.4 5.6-.1 1 3.2 3 4 3.2 6.4 2 14.8 2.7 20.1 2.7 8.9 0 13.5-1.5 15.7-2.2 13.2-4.4 14.7-15.1 14.7-19.1 0-12.3-10.8-16.7-19.4-20.1-10.3-4.1-14.4-5.5-14.4-9.4 0-6.4 7.2-7.4 10.3-7.2 4.9.2 6.2.6 10.4 1.9 1.4.4 5.2 3.6 6.2 4.5.8.7 1.2 1.1 2.2 2.1z" fill="#8a8b8a"/><path d="m127 95.5c-7.6-3.4-13.2-4.1-21-4.1-10.1 0-15.8 2.1-20.9 5.5-1.8 1.3-7.1 5.2-7.1 14 0 4.3.6 12 14.5 17.5 16 6.3 18.4 7.7 18.4 12.3 0 4.7-3.8 7.2-10 7.2-5.1-.1-10-1.3-14.6-3.6-2.8-1.1-7.5-4.6-7.5-4.6l-1.5 8.1c-.4 2-.7 3.7-1 5.4-.1 1-.2 1.1.6 1.3 6.4 2 14.8 2.7 20.1 2.7 8.8 0 13.5-1.5 15.7-2.2 13.2-4.4 14.7-14.2 14.7-18.2 0-12.3-10.8-16.7-19.4-20.1-10.3-4.1-13.9-5.5-13.9-9.4 0-6.4 6.7-6.7 9.8-6.7 5.2 0 8.1.7 12.6 2.8 3.3 1.5 5.4 3.1 7.4 4.9z" fill="#e6001a"/><path d="m233.8 93.4c-18.3 0-37.5 11-37.5 34.5 0 20.1 14.1 31.5 35.4 31.5 22 0 39.6-12.2 39.6-33.9 0-10.3-3.7-16.7-7.6-20.8-9.5-10.1-21.4-11.3-29.9-11.3m18.1 35.4c0 15.2-7.7 21.8-17.2 21.8-11.8 0-19.2-10.7-19.2-25.8 0-11.8 5.1-21.8 17.1-21.8 13.4.1 19.3 11.5 19.3 25.8" fill="#8a8b8a"/><path d="m230.2 91.1c-18.3 0-37.5 11-37.5 34.5 0 20.1 14.1 31.5 35.4 31.5 22 0 39.6-12.2 39.6-33.9 0-10.3-3.7-16.7-7.6-20.8-9.4-10.1-21.3-11.3-29.9-11.3m18.2 35.4c0 15.2-7.7 21.8-17.2 21.8-11.8 0-19.2-10.7-19.2-25.7 0-11.8 5.1-21.8 17.1-21.8 13.4 0 19.3 11.4 19.3 25.7m-112.1-34.3v63.8h17.5v-25.6h12.6c11.5-.2 21-8.7 21-20.1 0-7.7-6.4-17.6-19.8-18zm17.1 8.7h8.4c6.3 0 9.5 5 9.5 9.8 0 5.5-4.5 9-9.1 9h-8.8zm123-8.7v63.8h17v-26.7h4.7c8.7 0 15 22.9 18.2 26.7h19.4c-5.8-6.1-13.9-28.4-19.4-29.8 7.4-3.4 11.1-8.6 11.1-15.6 0-9.5-7.9-18.3-21.2-18.3zm17 9.2h8.2c6.1 0 10.8 3.8 10.8 9.2 0 6.8-6 10.6-10.5 10.6h-8.5z" fill="#e6001a"/></svg>