<svg viewBox="0 0 547.13 53.74" xmlns="http://www.w3.org/2000/svg"><path d="m70.15 1h28.38l-1.28 6.3h-21.16l-2.27 10.88h18.36l-1.28 5.95h-18.3l-3.85 18.47h-7.29z"/><path d="m103.72 28.85q-.24 4.84 2.39 6.82a11.65 11.65 0 0 0 7.17 2 15.27 15.27 0 0 0 3.11-.35 9.79 9.79 0 0 0 3-1.14 7.17 7.17 0 0 0 2.24-2 5.18 5.18 0 0 0 .9-3.11 4.87 4.87 0 0 0 -.84-2.92 6.92 6.92 0 0 0 -2.22-1.95 15.74 15.74 0 0 0 -3.17-1.34c-1.21-.37-2.45-.73-3.73-1.08-.93-.23-2-.55-3.32-1a14.75 14.75 0 0 1 -3.72-1.78 10.36 10.36 0 0 1 -3.06-3.12 8.75 8.75 0 0 1 -1.26-4.89 12.77 12.77 0 0 1 1.05-5.19 11.58 11.58 0 0 1 3-4.11 14.28 14.28 0 0 1 4.9-2.69 20.72 20.72 0 0 1 6.56-1 25.55 25.55 0 0 1 6.12.7 13.56 13.56 0 0 1 5 2.27 10.46 10.46 0 0 1 3.26 4.11 13.68 13.68 0 0 1 1 6.21h-7q-.1-3.9-2.1-5.63c-1.4-1.14-3.51-1.72-6.35-1.72a16.69 16.69 0 0 0 -2.1.18 8.88 8.88 0 0 0 -2.68.82 6.84 6.84 0 0 0 -2.33 1.83 5 5 0 0 0 -1 3.29 4.21 4.21 0 0 0 .7 2.51 5.88 5.88 0 0 0 1.89 1.69 12.34 12.34 0 0 0 2.77 1.17c1 .31 2.16.6 3.32.87 1.48.39 3 .82 4.46 1.28a15.1 15.1 0 0 1 4.08 2 9.43 9.43 0 0 1 3 3.29 10.82 10.82 0 0 1 1.14 5.3 13.25 13.25 0 0 1 -1 4.83 11.86 11.86 0 0 1 -3 4.31 15.65 15.65 0 0 1 -5.37 3.12 23.47 23.47 0 0 1 -8 1.2 24.35 24.35 0 0 1 -6.64-.85 13.12 13.12 0 0 1 -5-2.62 11.33 11.33 0 0 1 -3.14-4.58 17.29 17.29 0 0 1 -1-6.7z"/><path d="m169.87 42.6h-4.66v-4.37h-.12a12.17 12.17 0 0 1 -2.48 2.39 15.78 15.78 0 0 1 -2.85 1.66 15.05 15.05 0 0 1 -3 1 13.55 13.55 0 0 1 -2.77.32 20.94 20.94 0 0 1 -7.93-1.4 16 16 0 0 1 -9.32-9.62 20.49 20.49 0 0 1 -1.23-7.17 30 30 0 0 1 2-11.33 23 23 0 0 1 5.13-7.93 20.59 20.59 0 0 1 7.17-4.63 22.58 22.58 0 0 1 8.05-1.52 25.45 25.45 0 0 1 6.85.88 16.18 16.18 0 0 1 5.51 2.62 12.29 12.29 0 0 1 3.67 4.43 14.06 14.06 0 0 1 1.34 6.35h-7.23c-.16-2.84-1.15-4.93-3-6.29a12 12 0 0 0 -7.34-2 12.21 12.21 0 0 0 -6.5 1.7 14.69 14.69 0 0 0 -4.6 4.42 20.66 20.66 0 0 0 -2.77 6.18 26.54 26.54 0 0 0 -.93 6.94q0 5.82 3 9.15t8.45 3.32a12.77 12.77 0 0 0 4.78-.84 11.1 11.1 0 0 0 3.64-2.36 13.21 13.21 0 0 0 2.59-3.62 20.84 20.84 0 0 0 1.64-4.6h-11.49l1.17-5.54h17.89z"/><path d="m227.45 14.86c0-2.91-.8-5.13-2.42-6.64s-3.93-2.28-7-2.28a12.18 12.18 0 0 0 -6.5 1.7 14.59 14.59 0 0 0 -4.6 4.42 20.66 20.66 0 0 0 -2.77 6.18 26.54 26.54 0 0 0 -.93 6.94q0 5.82 3 9.15t8.45 3.32a9.52 9.52 0 0 0 4.72-1.08 11 11 0 0 0 3.19-2.57 13 13 0 0 0 1.92-3.18 24.88 24.88 0 0 0 1-2.68h7.29a22.94 22.94 0 0 1 -2.67 6.86 17.73 17.73 0 0 1 -4.13 4.81 16.63 16.63 0 0 1 -5.37 2.85 20.27 20.27 0 0 1 -6.15.94 20.92 20.92 0 0 1 -7.92-1.4 16.09 16.09 0 0 1 -9.33-9.62 20.72 20.72 0 0 1 -1.23-7.17 30 30 0 0 1 2-11.33 23 23 0 0 1 5.13-7.93 20.59 20.59 0 0 1 7.17-4.63 22.58 22.58 0 0 1 8-1.52 22 22 0 0 1 6.76 1 15.08 15.08 0 0 1 5.28 2.86 12.29 12.29 0 0 1 3.35 4.66 15 15 0 0 1 1.05 6.35z"/><path d="m250.12 43.42q-6.28 0-9.73-3.41t-3.39-9.76a20.58 20.58 0 0 1 1.22-7.08 18.71 18.71 0 0 1 3.47-5.92 16.63 16.63 0 0 1 5.42-4.08 16.25 16.25 0 0 1 7.08-1.51q6.3 0 9.74 3.29t3.44 9.65a22.86 22.86 0 0 1 -1.17 7.4 17.24 17.24 0 0 1 -3.41 6 16.11 16.11 0 0 1 -5.42 4 17.12 17.12 0 0 1 -7.25 1.42zm3.62-26.52a7.79 7.79 0 0 0 -4.46 1.28 11.55 11.55 0 0 0 -3.18 3.24 14.23 14.23 0 0 0 -1.89 4.34 18.74 18.74 0 0 0 -.62 4.66 9 9 0 0 0 1.67 5.58q1.65 2.22 5.27 2.22a7.86 7.86 0 0 0 4.47-1.3 11.15 11.15 0 0 0 3.18-3.2 14.44 14.44 0 0 0 1.89-4.37 19.08 19.08 0 0 0 .61-4.7 8.93 8.93 0 0 0 -1.68-5.53q-1.66-2.22-5.26-2.22z"/><path d="m276.7 12.47h6.3l-.87 4.26.12.11a13.19 13.19 0 0 1 4.5-3.84 12.37 12.37 0 0 1 5.8-1.37 9.8 9.8 0 0 1 4.9 1.19 5.94 5.94 0 0 1 2.74 4.18 19.4 19.4 0 0 1 4.54-3.85 10.73 10.73 0 0 1 5.66-1.51c2.91 0 5.07.72 6.46 2.15a8 8 0 0 1 2.1 5.83 14.88 14.88 0 0 1 -.14 1.87c-.1.7-.21 1.32-.32 1.86l-3.85 19.25h-6.64l3.73-17.83c.07-.35.18-.85.32-1.49a14.3 14.3 0 0 0 .26-2.06 8.3 8.3 0 0 0 -.15-1.55 3.21 3.21 0 0 0 -.61-1.4 3.31 3.31 0 0 0 -1.28-1 5.06 5.06 0 0 0 -2.1-.38 7.12 7.12 0 0 0 -3.41.79 9.1 9.1 0 0 0 -2.56 2 11.23 11.23 0 0 0 -2.65 5.32l-3.68 17.6h-6.64l3.44-16.55c.15-.77.34-1.65.55-2.62a12.6 12.6 0 0 0 .32-2.8 4.37 4.37 0 0 0 -.79-2.62 3.29 3.29 0 0 0 -2.88-1.11 7.1 7.1 0 0 0 -3.29.7 9.23 9.23 0 0 0 -2.36 1.69 17.59 17.59 0 0 0 -2 2.54 9.64 9.64 0 0 0 -1.46 3.35l-3.65 17.42h-6.65z"/><path d="m328.28 12.47h6.58l-.86 3.85.12.12a10.51 10.51 0 0 1 4.13-3.53 12 12 0 0 1 5.37-1.25 12.42 12.42 0 0 1 4.95.93 9.75 9.75 0 0 1 3.58 2.59 11.12 11.12 0 0 1 2.16 4 16.25 16.25 0 0 1 .73 5 26.66 26.66 0 0 1 -.94 6.82 19.68 19.68 0 0 1 -2.86 6.2 15.2 15.2 0 0 1 -4.84 4.46 13.11 13.11 0 0 1 -6.82 1.72 14.35 14.35 0 0 1 -5.88-1.14 7.86 7.86 0 0 1 -4-4.34h-.12l-3.27 15.8h-6.64zm3.15 18a11.65 11.65 0 0 0 .37 3 7.33 7.33 0 0 0 1.2 2.43 5.33 5.33 0 0 0 2 1.66 6.91 6.91 0 0 0 3 .62 8.65 8.65 0 0 0 4.7-1.18 10.17 10.17 0 0 0 3.21-3.12 14.28 14.28 0 0 0 1.86-4.31 19.12 19.12 0 0 0 .62-4.78 12 12 0 0 0 -.38-3.06 7.26 7.26 0 0 0 -1.2-2.5 5.64 5.64 0 0 0 -2.07-1.7 6.86 6.86 0 0 0 -3-.61 8.49 8.49 0 0 0 -4.63 1.23 10.22 10.22 0 0 0 -3.21 3.17 14.89 14.89 0 0 0 -1.9 4.35 19.29 19.29 0 0 0 -.57 4.75z"/><path d="m386.5 33.28a13.25 13.25 0 0 1 -5.3 7.72 16.62 16.62 0 0 1 -9.2 2.42 15 15 0 0 1 -5.27-.9 11.53 11.53 0 0 1 -4.17-2.63 12.08 12.08 0 0 1 -2.74-4.13 14.47 14.47 0 0 1 -1-5.51 21.69 21.69 0 0 1 1.1-6.82 18.87 18.87 0 0 1 3.24-5.95 16.34 16.34 0 0 1 5.25-4.22 15.32 15.32 0 0 1 7.13-1.6 13.72 13.72 0 0 1 6.53 1.34 10.75 10.75 0 0 1 3.93 3.38 12.08 12.08 0 0 1 1.89 4.49 23.5 23.5 0 0 1 .5 4.66 16 16 0 0 1 -.12 2c-.08.62-.16 1.18-.23 1.69h-22.46c0 .19-.07.37-.09.52a3.71 3.71 0 0 0 0 .47v.93a7.51 7.51 0 0 0 1.66 5.07c1.11 1.28 2.95 1.93 5.51 1.93a8.34 8.34 0 0 0 4.6-1.23 6.18 6.18 0 0 0 2.63-3.67zm-4.84-8.39a2.58 2.58 0 0 0 .06-.5v-1.39a6 6 0 0 0 -1.69-4.4 6.25 6.25 0 0 0 -4.66-1.72 8 8 0 0 0 -5.95 2.25 13.08 13.08 0 0 0 -3.2 5.74z"/><path d="m411.27 21.27a3.77 3.77 0 0 0 -1.72-3.27 8 8 0 0 0 -4.34-1.05 9.62 9.62 0 0 0 -1.89.18 4.88 4.88 0 0 0 -1.64.61 3.33 3.33 0 0 0 -1.16 1.17 3.49 3.49 0 0 0 -.44 1.83 2.06 2.06 0 0 0 .79 1.69 7.4 7.4 0 0 0 2.07 1.14 29.9 29.9 0 0 0 2.85.93q1.57.43 3.15 1c.89.35 1.77.74 2.62 1.17a8.71 8.71 0 0 1 2.25 1.57 7.25 7.25 0 0 1 1.54 2.21 7.44 7.44 0 0 1 .59 3.09 8.27 8.27 0 0 1 -1.17 4.46 10.15 10.15 0 0 1 -3 3.09 13.21 13.21 0 0 1 -4.29 1.78 21.63 21.63 0 0 1 -4.86.55 22.41 22.41 0 0 1 -4.9-.5 10.56 10.56 0 0 1 -4-1.69 8.27 8.27 0 0 1 -2.68-3.2 12.07 12.07 0 0 1 -1.05-5.1h6.29a4.18 4.18 0 0 0 1.81 4 9 9 0 0 0 4.84 1.2 11.43 11.43 0 0 0 2.15-.21 7.41 7.41 0 0 0 2-.67 4.27 4.27 0 0 0 1.6-1.25 3.51 3.51 0 0 0 .61-2.13 2.46 2.46 0 0 0 -.85-1.92 7.55 7.55 0 0 0 -2.15-1.31 25.61 25.61 0 0 0 -3-1q-1.67-.46-3.24-1.05a17 17 0 0 1 -2.53-1.11 9.51 9.51 0 0 1 -2.13-1.54 6.47 6.47 0 0 1 -1.39-2.16 7.38 7.38 0 0 1 -.52-2.91 7.81 7.81 0 0 1 1.08-4.2 8.76 8.76 0 0 1 2.82-2.86 13.16 13.16 0 0 1 4-1.63 19.57 19.57 0 0 1 4.54-.52 23.36 23.36 0 0 1 4.61.43 10.11 10.11 0 0 1 3.75 1.55 7.52 7.52 0 0 1 2.51 3 10.31 10.31 0 0 1 .85 4.66z"/><path d="m425.32 12.47h6.68l-6.27 30.13h-6.65zm2.39-11.47h6.58l-1.29 6.29h-6.59z"/><path d="m462.09 33.28a13.2 13.2 0 0 1 -5.3 7.72 16.62 16.62 0 0 1 -9.21 2.42 15 15 0 0 1 -5.27-.9 11.53 11.53 0 0 1 -4.17-2.63 12.08 12.08 0 0 1 -2.74-4.13 14.47 14.47 0 0 1 -1-5.51 21.42 21.42 0 0 1 1.11-6.82 18.65 18.65 0 0 1 3.23-5.95 16.34 16.34 0 0 1 5.26-4.22 15.39 15.39 0 0 1 7.14-1.6 13.71 13.71 0 0 1 6.52 1.34 10.75 10.75 0 0 1 3.91 3.38 12.08 12.08 0 0 1 1.89 4.49 23.5 23.5 0 0 1 .5 4.66 16 16 0 0 1 -.12 2c-.08.62-.15 1.18-.23 1.69h-22.44c0 .19-.07.37-.09.52a3.71 3.71 0 0 0 0 .47v.93a7.51 7.51 0 0 0 1.66 5.07c1.11 1.28 3 1.93 5.51 1.93a8.4 8.4 0 0 0 4.58-1.14 6.21 6.21 0 0 0 2.62-3.67zm-4.83-8.39a3.5 3.5 0 0 0 .05-.5v-1.39a6 6 0 0 0 -1.69-4.4 6.25 6.25 0 0 0 -4.62-1.7 7.94 7.94 0 0 0 -6 2.25 13 13 0 0 0 -3.21 5.74zm-6-16.55-6.88-8.34h7.28l4.49 8.34z"/><path d="m471.77 12.47h6.29l-1.22 5.89.12.12a16.1 16.1 0 0 1 1.72-2.48 14 14 0 0 1 2.24-2.19 11.8 11.8 0 0 1 2.65-1.57 7.49 7.49 0 0 1 3-.61h1.6a15 15 0 0 1 1.61.14l-1.4 6.35c-.39-.07-.78-.13-1.17-.17a11.27 11.27 0 0 0 -1.16-.06 10.15 10.15 0 0 0 -4.46.91 9.4 9.4 0 0 0 -3.21 2.47 13.37 13.37 0 0 0 -2.12 3.73 24.51 24.51 0 0 0 -1.26 4.26l-2.82 13.34h-6.65z"/><path d="m516.06 33.28a13.2 13.2 0 0 1 -5.3 7.72 16.62 16.62 0 0 1 -9.21 2.42 15 15 0 0 1 -5.27-.9 11.53 11.53 0 0 1 -4.17-2.63 12.08 12.08 0 0 1 -2.74-4.13 14.47 14.47 0 0 1 -1-5.51 21.42 21.42 0 0 1 1.11-6.82 18.65 18.65 0 0 1 3.23-5.95 16.34 16.34 0 0 1 5.29-4.22 15.36 15.36 0 0 1 7.14-1.6 13.71 13.71 0 0 1 6.49 1.34 10.75 10.75 0 0 1 3.91 3.38 12.08 12.08 0 0 1 1.89 4.49 23.5 23.5 0 0 1 .5 4.66 16 16 0 0 1 -.12 2c-.08.62-.15 1.18-.23 1.69h-22.44c0 .19-.07.37-.09.52a3.71 3.71 0 0 0 0 .47v.93a7.51 7.51 0 0 0 1.66 5.07c1.11 1.28 2.95 1.93 5.51 1.93a8.4 8.4 0 0 0 4.58-1.14 6.21 6.21 0 0 0 2.62-3.67zm-4.83-8.39a3.5 3.5 0 0 0 0-.5v-1.39a6 6 0 0 0 -1.69-4.4 6.25 6.25 0 0 0 -4.66-1.72 7.94 7.94 0 0 0 -5.88 2.27 13 13 0 0 0 -3.21 5.74z"/><path d="m540.83 21.27a3.78 3.78 0 0 0 -1.71-3.27 8.05 8.05 0 0 0 -4.35-1.05 9.62 9.62 0 0 0 -1.89.18 4.83 4.83 0 0 0 -1.63.61 3.28 3.28 0 0 0 -1.17 1.17 3.49 3.49 0 0 0 -.44 1.83 2.09 2.09 0 0 0 .79 1.69 7.4 7.4 0 0 0 2.07 1.14c.85.33 1.81.64 2.86.93s2.09.63 3.14 1 1.77.74 2.63 1.17a8.82 8.82 0 0 1 2.24 1.57 7.08 7.08 0 0 1 1.54 2.21 7.44 7.44 0 0 1 .59 3.09 8.27 8.27 0 0 1 -1.17 4.46 10.15 10.15 0 0 1 -3 3.09 13.15 13.15 0 0 1 -4.33 1.78 21.78 21.78 0 0 1 -4.87.55 22.41 22.41 0 0 1 -4.9-.5 10.56 10.56 0 0 1 -4-1.69 8.27 8.27 0 0 1 -2.68-3.2 12.07 12.07 0 0 1 -1.05-5.1h6.3a4.17 4.17 0 0 0 1.8 4 9 9 0 0 0 4.84 1.2 11.61 11.61 0 0 0 2.16-.21 7.64 7.64 0 0 0 2-.67 4.23 4.23 0 0 0 1.64-1.25 3.51 3.51 0 0 0 .61-2.13 2.49 2.49 0 0 0 -.84-1.92 7.76 7.76 0 0 0 -2.16-1.31 24.37 24.37 0 0 0 -3-1q-1.67-.46-3.24-1.05a17 17 0 0 1 -2.53-1.11 9.51 9.51 0 0 1 -2.08-1.57 6.47 6.47 0 0 1 -1.46-2.13 7.38 7.38 0 0 1 -.52-2.91 7.81 7.81 0 0 1 1.08-4.2 8.86 8.86 0 0 1 2.82-2.86 13.16 13.16 0 0 1 4-1.63 19.57 19.57 0 0 1 4.54-.52 23.36 23.36 0 0 1 4.61.43 10.23 10.23 0 0 1 3.76 1.55 7.5 7.5 0 0 1 2.5 3 10 10 0 0 1 .85 4.66z"/><path d="m0 .87h42v42h-42z" fill="#f44100"/><g fill="#fff"><path d="m20.85 8.53-5.6-3.33 5.75 16.67 5.36-16.8z"/><path d="m21.15 35.21 5.6 3.33-5.75-16.67-5.36 16.8z"/><path d="m34.34 21.71 3.33-5.59-16.67 5.75 16.8 5.36z"/><path d="m7.66 22.02-3.33 5.6 16.67-5.75-16.8-5.37z"/></g></svg>