<svg viewBox="0 0 2650.36 260.72" xmlns="http://www.w3.org/2000/svg"><path d="m336.14 4.81h137.71l-6.23 30.54h-102.62l-11 52.88h89l-6.22 28.84h-88.78l-18.66 89.64h-35.34z"/><path d="m499 140q-1.12 23.47 11.6 33.09t34.78 9.61a74.37 74.37 0 0 0 15.13-1.7 48 48 0 0 0 14.57-5.52 35.33 35.33 0 0 0 10.89-9.9q4.38-6.08 4.38-15.12c0-5.66-1.37-10.36-4.1-14.14a33.79 33.79 0 0 0 -10.75-9.47 75.33 75.33 0 0 0 -15.41-6.51q-8.77-2.67-18.09-5.23-6.79-1.7-16.12-4.67a72.88 72.88 0 0 1 -18.1-8.76 51.66 51.66 0 0 1 -14.85-15.13q-6.07-9.33-6.08-23.76a61.8 61.8 0 0 1 5.15-25.18 55.88 55.88 0 0 1 14.7-19.94 68.86 68.86 0 0 1 23.61-13 100.36 100.36 0 0 1 31.76-4.67 124.26 124.26 0 0 1 29.7 3.4 65.36 65.36 0 0 1 24 11 51.14 51.14 0 0 1 15.83 19.94q5.65 12.3 5.09 30.11h-33.9q-.28-18.93-10.47-27.29t-30.81-8.34a85.26 85.26 0 0 0 -10.19.85 43.15 43.15 0 0 0 -13 4 33.24 33.24 0 0 0 -11.32 8.89q-4.82 5.8-4.81 16 0 7.35 3.39 12.15a29.05 29.05 0 0 0 9.19 8.21 60.56 60.56 0 0 0 13.44 5.65q7.63 2.27 16.11 4.24 10.77 2.82 21.68 6.19a73.39 73.39 0 0 1 19.79 9.47 46.19 46.19 0 0 1 14.42 16q5.52 9.9 5.52 25.74a64.17 64.17 0 0 1 -4.53 23.46 56.53 56.53 0 0 1 -14.56 20.93q-10.05 9.33-26 15.13t-38.89 5.79a117.57 117.57 0 0 1 -32.24-4.1 63.48 63.48 0 0 1 -24.51-12.73 54.38 54.38 0 0 1 -15.27-22.2q-5.22-13.58-4.66-32.52z"/><path d="m820 206.71h-22.66v-21.21h-.57a60.84 60.84 0 0 1 -12 11.59 78.86 78.86 0 0 1 -13.86 8.07 72.2 72.2 0 0 1 -14.42 4.8 63.76 63.76 0 0 1 -13.43 1.55q-21.78 0-38.46-6.78a79.15 79.15 0 0 1 -28-18.66 80.21 80.21 0 0 1 -17.24-28 99.6 99.6 0 0 1 -5.94-34.78q0-31.67 9.47-55t24.88-38.45a100 100 0 0 1 34.77-22.49 109.67 109.67 0 0 1 39.17-7.35 124.62 124.62 0 0 1 33.22 4.25 79 79 0 0 1 26.73 12.75 60 60 0 0 1 17.81 21.49q6.49 13 6.51 30.82h-35.35q-1.14-20.64-14.42-30.54t-35.63-9.9q-18.11 0-31.53 8.21a71.34 71.34 0 0 0 -22.34 21.49 100.56 100.56 0 0 0 -13.43 30 127.88 127.88 0 0 0 -4.53 33.65q0 28.28 14.43 44.4t41 16.11a61.55 61.55 0 0 0 23.19-4.1 53.34 53.34 0 0 0 17.63-11.51 65.19 65.19 0 0 0 12.58-17.53 100.75 100.75 0 0 0 7.92-22.34h-55.39l5.66-26.86h86.81z"/><path d="m1099.34 72.11q0-21.21-11.74-32.23t-33.79-11q-18.09 0-31.53 8.21a71.34 71.34 0 0 0 -22.34 21.49 101.06 101.06 0 0 0 -13.43 30 127.87 127.87 0 0 0 -4.51 33.58q0 28.28 14.42 44.4t41 16.11q13.58 0 22.91-5.23a52.72 52.72 0 0 0 15.41-12.73 62 62 0 0 0 9.33-15.4 125.6 125.6 0 0 0 4.67-13h35.34q-4.24 19.23-12.73 33.36a86.39 86.39 0 0 1 -20.21 23.48 80.52 80.52 0 0 1 -26 13.85 98.34 98.34 0 0 1 -29.83 4.52q-21.78 0-38.46-6.78a79.24 79.24 0 0 1 -28-18.66 80.21 80.21 0 0 1 -17.24-28 99.83 99.83 0 0 1 -5.94-34.78q0-31.67 9.47-55t24.86-38.46a100 100 0 0 1 34.78-22.49 109.71 109.71 0 0 1 39.16-7.35 107.13 107.13 0 0 1 32.81 4.81 73.53 73.53 0 0 1 25.59 13.86 59.2 59.2 0 0 1 16.26 22.61q5.64 13.57 5.08 30.83z"/><path d="m1209.33 210.67q-30.54 0-47.23-16.55t-16.67-47.36a99.27 99.27 0 0 1 5.93-34.35 89.93 89.93 0 0 1 16.83-28.71 80.65 80.65 0 0 1 26.29-19.79 78.84 78.84 0 0 1 34.36-7.36q30.54 0 47.22 16t16.69 46.8a111.09 111.09 0 0 1 -5.66 35.91 83.8 83.8 0 0 1 -16.54 29 78.25 78.25 0 0 1 -26.3 19.37q-15.42 7.04-34.92 7.04zm17.53-128.67q-12.45 0-21.63 6.22a55.38 55.38 0 0 0 -15.41 15.69 69.46 69.46 0 0 0 -9.19 21.07 90.92 90.92 0 0 0 -3 22.62q0 16.13 8 26.87t25.6 10.74q12.43 0 21.63-6.08a53.74 53.74 0 0 0 15.41-15.55 69.54 69.54 0 0 0 9.19-21.21 92.63 92.63 0 0 0 3-22.77q0-16.11-8.06-26.86t-25.54-10.74z"/><path d="m1338.27 60.52h30.54l-4.24 20.64.56.57a64.7 64.7 0 0 1 21.92-18.53 60.55 60.55 0 0 1 28.14-6.65q13.57 0 23.75 5.8t13.29 20.22a93.86 93.86 0 0 1 22.06-18.66 52 52 0 0 1 27.43-7.36q21.19 0 31.38 10.47t10.18 28.28a68.17 68.17 0 0 1 -.7 9q-.72 5.1-1.56 9l-18.66 93.32h-32.24l18.1-86.53q.55-2.55 1.55-7.21a63.65 63.65 0 0 0 1.28-10 41.15 41.15 0 0 0 -.71-7.49 15.77 15.77 0 0 0 -3-6.79 16.26 16.26 0 0 0 -6.22-4.81 24.37 24.37 0 0 0 -10.12-1.79 34.77 34.77 0 0 0 -16.54 3.82 44.68 44.68 0 0 0 -12.46 9.62 51.49 51.49 0 0 0 -8.49 12.72 53.8 53.8 0 0 0 -4.38 13.15l-17.81 85.4h-32.24l16.68-80.31q1.13-5.66 2.69-12.72a63.52 63.52 0 0 0 1.55-13.58 21.35 21.35 0 0 0 -3.82-12.72q-3.81-5.37-14-5.37a34.69 34.69 0 0 0 -16 3.39 44.91 44.91 0 0 0 -11.45 8.2 85.59 85.59 0 0 0 -9.9 12.3 47.34 47.34 0 0 0 -7.07 16.26l-17.53 84.55h-32.23z"/><path d="m1588.52 60.52h32l-4.25 18.66.57.56a51.33 51.33 0 0 1 20.08-17.1 58.46 58.46 0 0 1 26-6.09 60.16 60.16 0 0 1 24 4.53 47.4 47.4 0 0 1 17.39 12.58 54.27 54.27 0 0 1 10.46 19.24 79.56 79.56 0 0 1 3.54 24.17 128.47 128.47 0 0 1 -4.53 33.51 95 95 0 0 1 -13.86 30.12 74.72 74.72 0 0 1 -23.46 21.63q-14.15 8.32-33.09 8.34-16.11 0-28.56-5.51t-19.23-21.07h-.58l-15.84 76.63h-32.16zm15.27 87.09a55.83 55.83 0 0 0 1.84 14.7 34.59 34.59 0 0 0 5.65 11.88 26.76 26.76 0 0 0 10 8.06 33.84 33.84 0 0 0 14.71 3q13 0 22.48-5.8a48.77 48.77 0 0 0 15.56-15.13 69.72 69.72 0 0 0 9-20.92 93.13 93.13 0 0 0 3-23.19 57.84 57.84 0 0 0 -1.84-14.84 34.71 34.71 0 0 0 -5.8-12.16 27.34 27.34 0 0 0 -10-8.2 32.91 32.91 0 0 0 -14.56-3q-13 0-22.48 5.94a49.41 49.41 0 0 0 -15.56 15.4 71.3 71.3 0 0 0 -9 21.21 93.84 93.84 0 0 0 -3 23.05z"/><path d="m1871 161.46q-7.63 25.75-25.73 37.48t-44.68 11.73a72.6 72.6 0 0 1 -25.59-4.38 56.67 56.67 0 0 1 -20.22-12.73 59.24 59.24 0 0 1 -13.29-20.08 69.87 69.87 0 0 1 -4.8-26.72 103.67 103.67 0 0 1 5.37-33.08 90.9 90.9 0 0 1 15.69-28.85 78.49 78.49 0 0 1 25.45-20.49q15.12-7.79 34.64-7.79t31.67 6.51a52.45 52.45 0 0 1 19 16.4 58.91 58.91 0 0 1 9.19 21.78 114.18 114.18 0 0 1 2.4 22.62 79.31 79.31 0 0 1 -.57 9.89c-.38 3-.75 5.76-1.12 8.2h-108.91c-.2 1-.34 1.8-.43 2.55a17.14 17.14 0 0 0 -.14 2.26v4.53q0 15.26 8.06 24.59t26.72 9.34q13 0 22.34-5.94t12.72-17.82zm-23.47-40.71a12.38 12.38 0 0 0 .28-2.41v-6.65q0-13-8.2-21.34t-22.61-8.35q-18.11 0-28.84 10.89t-15.55 27.85z"/><path d="m1991.19 103.22q-.29-11-8.34-16.12t-21.07-5.1a47.87 47.87 0 0 0 -9.19.85 23.85 23.85 0 0 0 -7.91 3 16.12 16.12 0 0 0 -5.66 5.65 17.13 17.13 0 0 0 -2.12 8.91 10.06 10.06 0 0 0 3.81 8.2 36.8 36.8 0 0 0 10 5.51q6.21 2.41 13.85 4.53t15.27 5q6.49 2.53 12.73 5.65a43.76 43.76 0 0 1 10.89 7.64 35.05 35.05 0 0 1 7.49 10.74 36.12 36.12 0 0 1 2.83 15q0 12.72-5.66 21.77a48.65 48.65 0 0 1 -14.7 15 63.53 63.53 0 0 1 -20.79 8.62 105.5 105.5 0 0 1 -23.61 2.69 111.73 111.73 0 0 1 -23.76-2.41 51.83 51.83 0 0 1 -19.22-8.2 40.44 40.44 0 0 1 -13-15.55q-4.8-9.75-5.09-24.74h30.54q-.57 13.86 8.77 19.65t23.47 5.8a57.76 57.76 0 0 0 10.46-1 37.13 37.13 0 0 0 9.9-3.25 20.39 20.39 0 0 0 7.49-6.37 17.1 17.1 0 0 0 3-10.32 12 12 0 0 0 -4.1-9.33 37.79 37.79 0 0 0 -10.47-6.44 122.68 122.68 0 0 0 -14.43-4.95q-8.05-2.25-15.69-5.09a85.25 85.25 0 0 1 -12.3-5.37 45.68 45.68 0 0 1 -10.32-7.5 31.27 31.27 0 0 1 -7.07-10.32 35.67 35.67 0 0 1 -2.55-14.13q0-11.88 5.24-20.36a42.62 42.62 0 0 1 13.73-13.88 62.72 62.72 0 0 1 19.23-7.92 95.15 95.15 0 0 1 22.06-2.55 113.32 113.32 0 0 1 22.33 2.12 48.93 48.93 0 0 1 18.24 7.5 36.47 36.47 0 0 1 12.16 14.42q4.38 9.06 4.1 22.63z"/><path d="m2059.34 60.52h32.24l-30.26 146.19h-32.24zm11.6-55.71h31.95l-6.22 30.54h-32z"/><path d="m2237.77 161.46q-7.64 25.75-25.74 37.48t-44.67 11.73a72.56 72.56 0 0 1 -25.59-4.38 56.67 56.67 0 0 1 -20.22-12.73 59.1 59.1 0 0 1 -13.29-20.08 69.87 69.87 0 0 1 -4.81-26.72 104 104 0 0 1 5.37-33.08 90.92 90.92 0 0 1 15.7-28.85 78.49 78.49 0 0 1 25.48-20.49q15.12-7.79 34.64-7.79t31.67 6.51a52.33 52.33 0 0 1 18.94 16.4 58.58 58.58 0 0 1 9.19 21.78 114.18 114.18 0 0 1 2.4 22.62 79.4 79.4 0 0 1 -.56 9.89c-.38 3-.75 5.76-1.13 8.2h-108.9q-.28 1.43-.42 2.55a17.14 17.14 0 0 0 -.14 2.26v4.53q0 15.26 8 24.59t26.73 9.34q13 0 22.34-5.94t12.72-17.82zm-23.47-40.71a13.21 13.21 0 0 0 .28-2.41v-6.65q0-13-8.2-21.34t-22.62-8.35q-18.11 0-28.85 10.89t-15.54 27.85zm-29.13-80.31-33.36-40.44h35.34l21.78 40.44z"/><path d="m2284.71 60.52h30.54l-5.94 28.56.57.56a83.15 83.15 0 0 1 8.34-11.88 71.73 71.73 0 0 1 10.89-10.6 57 57 0 0 1 12.89-7.64 36.78 36.78 0 0 1 14.56-3c2.64 0 5.24.05 7.78.15s5.13.33 7.78.7l-6.79 30.83c-1.88-.38-3.77-.66-5.65-.85a56.59 56.59 0 0 0 -5.66-.28q-12.45 0-21.63 4.38a45.37 45.37 0 0 0 -15.56 12 65.1 65.1 0 0 0 -10.35 17.55 122.65 122.65 0 0 0 -6.22 20.92l-13.57 64.76h-32.24z"/><path d="m2499.62 161.46q-7.65 25.75-25.74 37.48t-44.67 11.73a72.56 72.56 0 0 1 -25.59-4.38 56.67 56.67 0 0 1 -20.22-12.73 59.1 59.1 0 0 1 -13.29-20.08 69.87 69.87 0 0 1 -4.81-26.72 104 104 0 0 1 5.37-33.08 90.92 90.92 0 0 1 15.7-28.85 78.49 78.49 0 0 1 25.45-20.49q15.12-7.79 34.63-7.79t31.68 6.51a52.33 52.33 0 0 1 18.94 16.4 58.75 58.75 0 0 1 9.19 21.78 114.18 114.18 0 0 1 2.4 22.62 79.4 79.4 0 0 1 -.56 9.89c-.38 3-.75 5.76-1.13 8.2h-108.87q-.29 1.43-.42 2.55a17.14 17.14 0 0 0 -.14 2.26v4.53q0 15.26 8.05 24.59t26.73 9.34q13 0 22.34-5.94t12.72-17.82zm-23.47-40.71a13.21 13.21 0 0 0 .28-2.41v-6.65q0-13-8.2-21.34t-22.62-8.35q-18.11 0-28.85 10.89t-15.54 27.85z"/><path d="m2619.8 103.22q-.28-11-8.34-16.12t-21.07-5.1a47.87 47.87 0 0 0 -9.19.85 23.9 23.9 0 0 0 -7.92 3 16.09 16.09 0 0 0 -5.65 5.65 17 17 0 0 0 -2.12 8.91 10.06 10.06 0 0 0 3.81 8.2 36.73 36.73 0 0 0 10 5.51q6.22 2.41 13.86 4.53t15.26 5q6.51 2.53 12.73 5.65a43.4 43.4 0 0 1 10.89 7.64 34.71 34.71 0 0 1 7.49 10.74 36 36 0 0 1 2.83 15q0 12.72-5.66 21.77a48.54 48.54 0 0 1 -14.7 15 63.47 63.47 0 0 1 -20.78 8.62 105.63 105.63 0 0 1 -23.61 2.69 111.6 111.6 0 0 1 -23.76-2.41 51.88 51.88 0 0 1 -19.23-8.2 40.51 40.51 0 0 1 -13-15.55q-4.82-9.75-5.1-24.74h30.54q-.57 13.86 8.77 19.65t23.47 5.8a57.67 57.67 0 0 0 10.46-1 36.9 36.9 0 0 0 9.9-3.25 20.39 20.39 0 0 0 7.49-6.37 17.1 17.1 0 0 0 3-10.32 12 12 0 0 0 -4.1-9.33 37.64 37.64 0 0 0 -10.46-6.36 122.48 122.48 0 0 0 -14.42-4.95q-8.05-2.25-15.69-5.09a85.25 85.25 0 0 1 -12.3-5.37 45.68 45.68 0 0 1 -10.32-7.5 31.27 31.27 0 0 1 -7.07-10.32 35.67 35.67 0 0 1 -2.55-14.13q0-11.88 5.23-20.36a42.81 42.81 0 0 1 13.72-13.96 62.78 62.78 0 0 1 19.24-7.92 95.06 95.06 0 0 1 22.05-2.55 113.49 113.49 0 0 1 22.34 2.12 48.93 48.93 0 0 1 18.24 7.5 36.55 36.55 0 0 1 12.16 14.42q4.38 9.06 4.1 22.63z"/><g fill="#f44100"><path d="m126.82 46.7-5.39 20.13h53.49l5.39-20.13zm-6.54 24.44-5.39 20.13h53.48l5.39-20.13z"/><path d="m11.94 71.14-5.39 20.13h54.58l5.39-20.13z"/><path d="m5.4 95.58-5.4 20.13h54.58l5.42-20.13z"/><path d="m139.8 95.58-5.4 20.13h53.08l5.39-20.13z"/><path d="m24.91 120-5.39 20.12h54.3l5.39-20.12z"/><path d="m18.37 144.45-5.37 20.13h54.27l5.39-20.13z"/><path d="m133.25 120-5.4 20.12h53.08l5.39-20.12z"/><path d="m89 4.81-23.13 86.46h20.84l23.17-86.46z"/><path d="m113.47 4.81-16.61 62h20.84l16.61-62zm-37.42 139.64-16.68 62.26h20.85l16.68-62.26z"/><path d="m107 120-23.19 86.71h20.84l23.23-86.71z"/></g></svg>